<mxfile host="app.diagrams.net" modified="2020-12-03T21:11:23.445Z" agent="5.0 (Windows)" etag="fX9vnfafUcjCRo7GAf0U" version="13.10.6" type="github">
  <diagram id="2frqTHtaEJu69DWvaWv0" name="Page-1">
    <mxGraphModel dx="1102" dy="630" grid="1" gridSize="10" guides="1" tooltips="1" connect="1" arrows="1" fold="1" page="1" pageScale="1" pageWidth="827" pageHeight="1169" math="0" shadow="0">
      <root>
        <mxCell id="0" />
        <mxCell id="1" parent="0" />
        <mxCell id="f4Xv82wCrHwWrjU4FI0w-1" value="urzytkownik" style="whiteSpace=wrap;html=1;aspect=fixed;" parent="1" vertex="1">
          <mxGeometry x="70" y="560" width="80" height="80" as="geometry" />
        </mxCell>
        <mxCell id="f4Xv82wCrHwWrjU4FI0w-2" value="baza danych" style="whiteSpace=wrap;html=1;aspect=fixed;" parent="1" vertex="1">
          <mxGeometry x="690" y="560" width="80" height="80" as="geometry" />
        </mxCell>
        <mxCell id="f4Xv82wCrHwWrjU4FI0w-3" value="system" style="rounded=1;whiteSpace=wrap;html=1;" parent="1" vertex="1">
          <mxGeometry x="310" y="570" width="120" height="60" as="geometry" />
        </mxCell>
        <mxCell id="f4Xv82wCrHwWrjU4FI0w-7" value="" style="endArrow=classic;html=1;entryX=-0.017;entryY=0.15;entryDx=0;entryDy=0;entryPerimeter=0;" parent="1" target="f4Xv82wCrHwWrjU4FI0w-3" edge="1">
          <mxGeometry width="50" height="50" relative="1" as="geometry">
            <mxPoint x="150" y="580" as="sourcePoint" />
            <mxPoint x="200" y="530" as="targetPoint" />
          </mxGeometry>
        </mxCell>
        <mxCell id="f4Xv82wCrHwWrjU4FI0w-8" value="" style="endArrow=classic;html=1;entryX=-0.017;entryY=0.15;entryDx=0;entryDy=0;entryPerimeter=0;" parent="1" edge="1">
          <mxGeometry width="50" height="50" relative="1" as="geometry">
            <mxPoint x="150" y="580" as="sourcePoint" />
            <mxPoint x="307.96000000000004" y="579" as="targetPoint" />
          </mxGeometry>
        </mxCell>
        <mxCell id="zFHQc0FxAUpc1nAV2CJH-8" value="Wysyłanie danych" style="edgeLabel;html=1;align=center;verticalAlign=middle;resizable=0;points=[];" vertex="1" connectable="0" parent="f4Xv82wCrHwWrjU4FI0w-8">
          <mxGeometry x="0.1016" relative="1" as="geometry">
            <mxPoint as="offset" />
          </mxGeometry>
        </mxCell>
        <mxCell id="f4Xv82wCrHwWrjU4FI0w-9" value="" style="endArrow=classic;html=1;entryX=0;entryY=0.25;entryDx=0;entryDy=0;" parent="1" edge="1" target="f4Xv82wCrHwWrjU4FI0w-2">
          <mxGeometry width="50" height="50" relative="1" as="geometry">
            <mxPoint x="430" y="581" as="sourcePoint" />
            <mxPoint x="588" y="580" as="targetPoint" />
          </mxGeometry>
        </mxCell>
        <mxCell id="zFHQc0FxAUpc1nAV2CJH-10" value="przesyłanie i aktualizowanie danych&amp;nbsp; klienta" style="edgeLabel;html=1;align=center;verticalAlign=middle;resizable=0;points=[];" vertex="1" connectable="0" parent="f4Xv82wCrHwWrjU4FI0w-9">
          <mxGeometry x="-0.1772" y="1" relative="1" as="geometry">
            <mxPoint x="19.009999999999998" y="-9.59" as="offset" />
          </mxGeometry>
        </mxCell>
        <mxCell id="f4Xv82wCrHwWrjU4FI0w-10" value="" style="endArrow=classic;html=1;entryX=1;entryY=0.75;entryDx=0;entryDy=0;" parent="1" target="f4Xv82wCrHwWrjU4FI0w-1" edge="1">
          <mxGeometry width="50" height="50" relative="1" as="geometry">
            <mxPoint x="310" y="621" as="sourcePoint" />
            <mxPoint x="180" y="620" as="targetPoint" />
          </mxGeometry>
        </mxCell>
        <mxCell id="zFHQc0FxAUpc1nAV2CJH-9" value="Pobieranie danych" style="edgeLabel;html=1;align=center;verticalAlign=middle;resizable=0;points=[];" vertex="1" connectable="0" parent="f4Xv82wCrHwWrjU4FI0w-10">
          <mxGeometry x="-0.2001" y="1" relative="1" as="geometry">
            <mxPoint as="offset" />
          </mxGeometry>
        </mxCell>
        <mxCell id="f4Xv82wCrHwWrjU4FI0w-11" value="" style="endArrow=classic;html=1;entryX=1;entryY=0.75;entryDx=0;entryDy=0;exitX=0;exitY=0.75;exitDx=0;exitDy=0;" parent="1" edge="1" source="f4Xv82wCrHwWrjU4FI0w-2">
          <mxGeometry width="50" height="50" relative="1" as="geometry">
            <mxPoint x="590" y="621" as="sourcePoint" />
            <mxPoint x="430" y="620" as="targetPoint" />
          </mxGeometry>
        </mxCell>
        <mxCell id="zFHQc0FxAUpc1nAV2CJH-11" value="wysyłanie potrzebnych danych , np dok, medyczna" style="edgeLabel;html=1;align=center;verticalAlign=middle;resizable=0;points=[];" vertex="1" connectable="0" parent="f4Xv82wCrHwWrjU4FI0w-11">
          <mxGeometry x="-0.1251" y="1" relative="1" as="geometry">
            <mxPoint x="-16" as="offset" />
          </mxGeometry>
        </mxCell>
        <mxCell id="f4Xv82wCrHwWrjU4FI0w-12" value="" style="whiteSpace=wrap;html=1;aspect=fixed;" parent="1" vertex="1">
          <mxGeometry x="50" y="10" width="80" height="80" as="geometry" />
        </mxCell>
        <mxCell id="f4Xv82wCrHwWrjU4FI0w-13" value="" style="whiteSpace=wrap;html=1;aspect=fixed;" parent="1" vertex="1">
          <mxGeometry x="570" y="10" width="80" height="80" as="geometry" />
        </mxCell>
        <mxCell id="f4Xv82wCrHwWrjU4FI0w-14" value="" style="rounded=1;whiteSpace=wrap;html=1;" parent="1" vertex="1">
          <mxGeometry x="290" y="20" width="120" height="60" as="geometry" />
        </mxCell>
        <mxCell id="f4Xv82wCrHwWrjU4FI0w-15" value="" style="endArrow=classic;html=1;entryX=-0.017;entryY=0.15;entryDx=0;entryDy=0;entryPerimeter=0;" parent="1" target="f4Xv82wCrHwWrjU4FI0w-14" edge="1">
          <mxGeometry width="50" height="50" relative="1" as="geometry">
            <mxPoint x="130" y="30" as="sourcePoint" />
            <mxPoint x="180" y="-20" as="targetPoint" />
          </mxGeometry>
        </mxCell>
        <mxCell id="f4Xv82wCrHwWrjU4FI0w-16" value="" style="endArrow=classic;html=1;entryX=-0.017;entryY=0.15;entryDx=0;entryDy=0;entryPerimeter=0;" parent="1" edge="1">
          <mxGeometry width="50" height="50" relative="1" as="geometry">
            <mxPoint x="130" y="30" as="sourcePoint" />
            <mxPoint x="287.96000000000004" y="29" as="targetPoint" />
          </mxGeometry>
        </mxCell>
        <mxCell id="f4Xv82wCrHwWrjU4FI0w-17" value="" style="endArrow=classic;html=1;" parent="1" edge="1">
          <mxGeometry width="50" height="50" relative="1" as="geometry">
            <mxPoint x="410" y="31" as="sourcePoint" />
            <mxPoint x="568" y="30" as="targetPoint" />
          </mxGeometry>
        </mxCell>
        <mxCell id="f4Xv82wCrHwWrjU4FI0w-18" value="" style="endArrow=classic;html=1;entryX=1;entryY=0.75;entryDx=0;entryDy=0;" parent="1" target="f4Xv82wCrHwWrjU4FI0w-12" edge="1">
          <mxGeometry width="50" height="50" relative="1" as="geometry">
            <mxPoint x="290" y="71" as="sourcePoint" />
            <mxPoint x="160" y="70" as="targetPoint" />
          </mxGeometry>
        </mxCell>
        <mxCell id="f4Xv82wCrHwWrjU4FI0w-19" value="" style="endArrow=classic;html=1;entryX=1;entryY=0.75;entryDx=0;entryDy=0;" parent="1" edge="1">
          <mxGeometry width="50" height="50" relative="1" as="geometry">
            <mxPoint x="570" y="71" as="sourcePoint" />
            <mxPoint x="410" y="70" as="targetPoint" />
          </mxGeometry>
        </mxCell>
        <mxCell id="f4Xv82wCrHwWrjU4FI0w-20" value="Administrator" style="whiteSpace=wrap;html=1;aspect=fixed;" parent="1" vertex="1">
          <mxGeometry x="50" y="150" width="80" height="80" as="geometry" />
        </mxCell>
        <mxCell id="f4Xv82wCrHwWrjU4FI0w-21" value="Konfiguracja " style="whiteSpace=wrap;html=1;aspect=fixed;" parent="1" vertex="1">
          <mxGeometry x="570" y="150" width="80" height="80" as="geometry" />
        </mxCell>
        <mxCell id="f4Xv82wCrHwWrjU4FI0w-22" value="Zarządzanie systemem " style="rounded=1;whiteSpace=wrap;html=1;" parent="1" vertex="1">
          <mxGeometry x="290" y="160" width="120" height="60" as="geometry" />
        </mxCell>
        <mxCell id="f4Xv82wCrHwWrjU4FI0w-23" value="" style="endArrow=classic;html=1;entryX=-0.017;entryY=0.15;entryDx=0;entryDy=0;entryPerimeter=0;" parent="1" target="f4Xv82wCrHwWrjU4FI0w-22" edge="1">
          <mxGeometry width="50" height="50" relative="1" as="geometry">
            <mxPoint x="130" y="170" as="sourcePoint" />
            <mxPoint x="180" y="120" as="targetPoint" />
          </mxGeometry>
        </mxCell>
        <mxCell id="f4Xv82wCrHwWrjU4FI0w-24" value="" style="endArrow=classic;html=1;entryX=-0.017;entryY=0.15;entryDx=0;entryDy=0;entryPerimeter=0;" parent="1" edge="1">
          <mxGeometry width="50" height="50" relative="1" as="geometry">
            <mxPoint x="130" y="170" as="sourcePoint" />
            <mxPoint x="287.96000000000004" y="169" as="targetPoint" />
          </mxGeometry>
        </mxCell>
        <mxCell id="zFHQc0FxAUpc1nAV2CJH-6" value="Konfiguracja" style="edgeLabel;html=1;align=center;verticalAlign=middle;resizable=0;points=[];" vertex="1" connectable="0" parent="f4Xv82wCrHwWrjU4FI0w-24">
          <mxGeometry x="0.3295" relative="1" as="geometry">
            <mxPoint as="offset" />
          </mxGeometry>
        </mxCell>
        <mxCell id="f4Xv82wCrHwWrjU4FI0w-25" value="" style="endArrow=classic;html=1;" parent="1" edge="1">
          <mxGeometry width="50" height="50" relative="1" as="geometry">
            <mxPoint x="414" y="190.5" as="sourcePoint" />
            <mxPoint x="572" y="189.5" as="targetPoint" />
          </mxGeometry>
        </mxCell>
        <mxCell id="zFHQc0FxAUpc1nAV2CJH-7" value="Dane konfiguracyjne" style="edgeLabel;html=1;align=center;verticalAlign=middle;resizable=0;points=[];" vertex="1" connectable="0" parent="f4Xv82wCrHwWrjU4FI0w-25">
          <mxGeometry x="-0.3163" y="2" relative="1" as="geometry">
            <mxPoint as="offset" />
          </mxGeometry>
        </mxCell>
        <mxCell id="f4Xv82wCrHwWrjU4FI0w-26" value="" style="endArrow=classic;html=1;entryX=1;entryY=0.75;entryDx=0;entryDy=0;" parent="1" target="f4Xv82wCrHwWrjU4FI0w-20" edge="1">
          <mxGeometry width="50" height="50" relative="1" as="geometry">
            <mxPoint x="290" y="211" as="sourcePoint" />
            <mxPoint x="160" y="210" as="targetPoint" />
          </mxGeometry>
        </mxCell>
        <mxCell id="zFHQc0FxAUpc1nAV2CJH-2" value="administrator" style="whiteSpace=wrap;html=1;aspect=fixed;" vertex="1" parent="1">
          <mxGeometry x="334" y="690" width="80" height="80" as="geometry" />
        </mxCell>
        <mxCell id="zFHQc0FxAUpc1nAV2CJH-4" value="" style="endArrow=classic;html=1;" edge="1" parent="1">
          <mxGeometry width="50" height="50" relative="1" as="geometry">
            <mxPoint x="371" y="690" as="sourcePoint" />
            <mxPoint x="371" y="630" as="targetPoint" />
          </mxGeometry>
        </mxCell>
        <mxCell id="zFHQc0FxAUpc1nAV2CJH-5" value="Ustawienia systemu" style="text;html=1;align=center;verticalAlign=middle;resizable=0;points=[];autosize=1;" vertex="1" parent="1">
          <mxGeometry x="150" y="180" width="120" height="20" as="geometry" />
        </mxCell>
      </root>
    </mxGraphModel>
  </diagram>
</mxfile>
